<?xml version="1.0" encoding="utf-8"?>
<!-- Generator: Adobe Illustrator 19.0.1, SVG Export Plug-In . SVG Version: 6.00 Build 0)  -->
<svg version="1.1" id="Layer_1" xmlns="http://www.w3.org/2000/svg" xmlns:xlink="http://www.w3.org/1999/xlink" x="0px" y="0px"
	 width="98.1px" height="97px" viewBox="0 0 98.1 97" enable-background="new 0 0 98.1 97" xml:space="preserve">
<linearGradient id="SVGID_1_" gradientUnits="userSpaceOnUse" x1="32.7219" y1="49.1736" x2="15.3462" y2="50.1571">
	<stop  offset="0" style="stop-color:#00561F"/>
	<stop  offset="1" style="stop-color:#191B72"/>
</linearGradient>
<path fill="url(#SVGID_1_)" d="M77.1,27.4C62.1,26.9,51.9,32.6,45,37c0,0.1,0,0.1,0,0.2c-2.4,1.6-4.5,3-6.1,3.9
	c-6.3,3.7-16.8,6.1-22.9-1.8c-5.6-7.3,5.5-13.2,2-11.7c-6,2.6-10.6,7-13.5,13.8c-1.4,3.1-1.7,6.2-2,9.4c0,1.6,1.2,17.9,18.6,18.4
	c15.1,0.4,25.3-5.2,32.1-9.6c0-0.1,0-0.1,0-0.2c2.4-1.6,4.5-3,6.1-3.9c6.3-3.7,16.8-6.1,22.9,1.8c5.6,7.3-5.5,13.2-2,11.7
	c6-2.6,10.6-7,13.5-13.8c1.4-3.1,1.7-6.2,2-9.4C95.7,44.2,94.6,27.8,77.1,27.4z"/>
<g>

	<path fill="#d5d5d5" d="M80.7,51.9c-0.2-2.9-2-4-2-4s0.9-0.8,0.7-4.6c-0.2-4.5-2.4-6.3-2.7-7.6c-0.1-5.6-3.4-8.8-6.2-10.1
		c-1.6-4-5-4.8-5-4.8s-2.4-3.5-6.9-5.9c-4.3-2.2-9.4-0.1-10,0.2c-0.6-0.3-5.7-2.4-10-0.2c-4.6,2.4-7,5.9-7,5.9s-3.4,0.7-5,4.8
		c-2.9,1.3-6.1,4.5-6.2,10.1c-0.2,1.2-2.4,3-2.7,7.6c-0.2,3.8,0.7,4.6,0.7,4.6s-1.8,1.1-2,4c-0.2,2.9,1.4,4.3,1.4,4.3
		s-1.8,6,0.9,10.3c1.9,3,2.1,2.9,2.1,2.9s-0.4,2.1,1.7,4.5c2.1,2.4,2.9,2.7,2.9,2.7s-0.5,3.8,4.4,5.4c4.8,1.6,5.2,1.6,5.2,1.6
		s5,3.7,10.2,2.5c1.5-0.4,2.6-0.6,3.3-0.8c0.8,0.2,1.8,0.4,3.3,0.8c5.1,1.2,10.2-2.5,10.2-2.5s0.4,0,5.2-1.6
		c4.8-1.6,4.4-5.4,4.4-5.4s0.8-0.3,2.9-2.7c2.1-2.4,1.7-4.5,1.7-4.5s0.2,0.1,2.1-2.9c2.7-4.3,0.9-10.3,0.9-10.3S80.9,54.8,80.7,51.9
		z"/>
	<path fill="#191B72" d="M77.1,55.7c0,0-0.8,3.2-3.5,4.5c-2.4,1.2-6.8-0.2-7.6-0.4c1.3-0.8,2.2-1.4,2.2-1.4s-0.5-0.8-3.3,0.7
		c-2.8,1.6-5.4,5.2-8.1,5.5c-2.7,0.3-5.6,0.1-5.6,0.1s-1.4-1.1-0.3-5.5c1.1-4.4,5.6-8.2,5.6-8.2s-3.8,2.2-4.8,1.4
		c-1-0.8-4.1-6.9-0.8-10.2c3.3-3.3,3.7-2.7,3.4-3.6c-0.3-0.9-3.8,3-4.6,0.7C49,37.1,50,32.8,50,32.8s-2-4.4,0.6-6.9
		c2.7-2.6-3.3-0.4-3.1,5.2c0.2,5.6,0.7,6.1-0.4,6.7c-1.1,0.5-3.6-0.6-5.9,0.9c-2.4,1.6-2.6,0.9-2.3,1.8c0.3,0.9,2.9-2,5.9-0.5
		c2.9,1.5,4.7,7,0.8,7.1c-3.8,0.1-7.9,0.1-8.1,0.1c-1.2,0-1.6-0.3-3-1.5c-1.3-1.2-1-2.1-1.2-3.4c-0.2-1.3,0.1-2.9,1.6-4.4
		c1.5-1.5,2.1-0.9,1.8-1.7c-0.2-0.5-1.9,0.6-3,1.3c-0.3-0.2-1.1-0.8-1.2-2.1c-0.1-1.6,0.1-3.1,2.3-4.8c2.2-1.7,3.7-2.3,2.9-2.4
		c-0.7-0.1-2,0.1-2.6-0.9c-0.5-1-1.3-3.6,1.3-4.9c2.6-1.3,4.6-1,4.3-1.5c-0.4-0.5-2.7-1-1.3-1.7c1.4-0.7,3.6-1.2,3.7-1.8
		c0.1-0.7,0.1-1.9-0.2-1.8c-0.3,0.1-0.2,0.5-1.4,1.2c-1.2,0.7-2.4,1.3-2.4,1.3s-1,0.6-1-0.7c0-1.3,0.1-1.9-0.1-1.9
		c-0.2,0-0.9,0.4-0.9,0.4s0,2.3,0.5,2.8c0.5,0.5,0.7,1.3,0.6,1.5c-0.1,0.2-1.3,0.3-2.6,1.3c-1.3,1-2,2.2-1.9,4.7
		c0.1,2.5,0.1,2.3-1.5,4.8c-1.6,2.5-1.5,4-0.8,5.3c0.6,1.1,1.2,1.6,1.5,1.9c-0.1,0.2-0.4,1.2-0.7,1.2c-0.4,0-1.3-0.9-1.8-0.4
		c-0.5,0.5,1.6,1.4,1.8,2.6c0.2,1.2-0.1,2.3-0.1,2.3s-1.9-0.5-3.4-0.4c-1.5,0.1-2.6,1-3.9,1.7c-1.4,0.8-3.9,1.5-5.1,1
		c-1.2-0.5-1.6-2.4-1.6-2.4s-0.1,0.3,0.1,1.6c0.2,1.3,0.6,2.1,0.6,2.1s0.6,0.2,1.1,0.3c0.5,0.1,1.1,0.1,3.5-0.6c2-0.6,2.3-1,2.3-1.2
		l-0.4,3l0.4-0.6c0,0,1-1.3,2.5-2.6c1.5-1.3,1.8-1.1,3-1.2c1.2-0.1,1.8,1.3,3.7,2.5c1.1,0.7,2,0.8,2.5,0.8c0,0,0,0,0,0
		s4.2-0.1,6.4,0.5c2.2,0.6,4.6,1.9,4.7,4.4c0.1,2.5,0.5,4.4-0.9,3.8c-1.4-0.5,0.2,0.6,0.2,0.6s1.2,1.4,1.2,3.7
		c0,2.3,0.8,5.2-0.5,5.2c-1.4,0-4.4-2.2-4.4-2.2s-3.7-0.8-4.6-1.7c-1.7-1.8-2.3-6-4.8-6.8c-2.5-0.7-6.4-1.4-7.7-1.9
		c-1.3-0.5-0.8-0.7-3.2,0.2c-2.4,0.9-4,1.2-4.9,0.6c-0.9-0.5-2-1.6-2-1.6s0.1,0.9,0.6,1.8c0.5,0.9,0.9,1.3,0.9,1.3s3.8-0.4,6.5-0.9
		c2.7-0.5,5.3,0.5,6,0.9c0.7,0.4-1.6,2.1-1.6,2.1s3.5-1.8,3.8-1.6c0.3,0.2,1.2,0.1,2.5,2.4c1.3,2.3,2.4,4.4,3.9,5.4
		c1.5,1,3,0.8,3.9,1.2c0,0,0.9,1.6,2.7,2.7c1.8,1,3,1.5,3,1.5s-0.4,1.7-0.2,2.7c0.2,0.9,0.9,2.7-2.5,3.5c-3.4,0.8-6.9-0.4-6.9-0.4
		c-1.5-0.6-2-1.6-2.1-1.6c-0.2,0-0.4,0.6-0.2,1.3c0.2,0.7,1,1-0.4,1c-1.5,0-2.9-0.6-3.8-1.3c-1-0.7-0.9-2.9-1.4-3.1
		c-0.5-0.2-0.1,2.1-0.1,2.1s-0.5,0.4-3.2,0.1c-2.7-0.3-4.5-3.1-4.7-3.6c-0.2-0.5-0.4-2.3-0.7-2.1c-0.3,0.1-0.5,1.4-0.5,1.4l-1.1-0.2
		c-0.1,0.8,0,1.1,0,1.1s1.4,1.1,1.9,1.4c0.5,0.3,1.4,1.3,3.8,2.5c2.4,1.2,4,0.4,4,0.4s0.9,0.5,1.4,0.9c2.5,1.4,3.7,2,5.7,1.8
		c1.3-0.1,3.1,0,4.2,0.1c0.9,0.2,1.9,0.4,2.8,0.2c3-0.4,4.1-0.5,4.1-0.5s0,0,0.1,0.1c-0.5,0.2-1.9,0.8-3.2,1.4
		c-1.6,0.8-3.7,2-7.6,2.8c-3.8,0.8-6.6-2.6-7.1-3.6c-0.4-1-1-1.4-2.2-1.3c-1.2,0.1-3.3-0.1-3.3-0.1c-0.1,0.4-0.1,0.9-0.1,0.9
		s0.2,0.1,1.1,0.1c0.9,0,2.6,0.2,3.6,0.8c1,0.6,1.4,2,3.7,3.5c2.1,1.3,3.5,0.9,3.8,0.8c-0.4,0.1-2.4,0.9-1.8,1.1
		c0.7,0.2,1,0.6,1,0.6s0,0,1,0c1,0,1.8-0.3,3,0.4c1.2,0.7,2.7,1.2,4,1.2s3-0.9,3-0.9s-1.2,0-3.5-0.1c-2.3-0.1-2.3-1.2-2.3-2.4
		c-0.1-1.3,1.3-1.5,2.8-2.3c1.2-0.6,3.4-1,4.4-1.2c-0.2,1.1-4.1,3.4-4.1,3.4s2-0.1,3.2-0.3c1.2-0.2,1.7,0.5,5,1.4c0,0-1.3-1-1.8-2.6
		c0,0,0-0.1,0-0.1c0-0.5-0.1-0.7,1.3,0.1c1.4,0.9,3.9,0.6,6.2,0.5c2.3-0.1,4.1-1.8,4.1-1.8s0.8-0.2,0.1,0.7
		c-0.7,0.9-3.3,2.3-5.5,2.7c-2.3,0.4-1.6,1.2-1.6,1.2s2.1-0.5,4.3-0.9c2.3-0.4,3.7-2.1,4.6-3c0.9-0.9,0.5-0.8,1.6-1
		c1.1-0.2,4.1-0.5,4.1-0.5s0.5-0.5,0.6-0.9c0.1-0.4,0-1.2,0-1.2s-1.1,1.1-2.4,1.4c-1.3,0.3-3.4,0.1-3.3-0.2c0.1-0.3,1-1.6,1-1.6
		s3.5-0.1,6.5-2.8c2.2-2,2-3.5,1.8-4.1c0.3-0.2,0.6-0.4,0.9-0.5c1.6-1.2,1.6-1.2,1.6-1.2s0.9-1.1,1.4-2.2c0.5-1.1,0.5-2.4,0.5-2.4
		s-1.9,4-5.9,5.3c-4,1.3-7.1,0.7-7.1,0.7s3.9-3.8-0.8-5.8c0,0,1.8,2.1,1,3.8c-0.8,1.6-3.2,3.5-6.1,4.5c-2.9,1-3.8,1.8-3.8,1.8
		s3-0.5,5.1-1.3c2.1-0.7,4.5-1.6,4.5-1.6s-0.3,0.4,1.6,0.4c-0.2,0.6-0.6,1.4-1.4,2.2c-0.3-0.9-1.2-1.4-1.2-0.8
		c0,0.3,0.2,0.9,0.3,1.7c-0.3,0.2-0.6,0.5-1,0.7c-3.2,1.7-10,1.3-12.2-0.5c-2.2-1.7-1.6-5.5-0.2-6c1.4-0.5,4-0.2,6.4-1.6
		c2.4-1.5,3.4-3.9,5.6-5.4c0.3-0.2,0.5-0.3,0.8-0.5c1.2,0.2,3.9,1.2,6.2,1.2c2.8,0.1,3.6-1.2,5-1.7c1.5-0.5,1.6,0,1.6-0.4
		c-0.1-0.4-0.2-2.5,0.4-3.3c0.5-0.8,2.4-2.1,2.4-2.1s0.2-0.5,0.2-1s0.1-1.5,0.1-1.5L77.1,55.7z M67.6,72.8c0.4-0.8,0.5-1.5,0.6-1.9
		c0.1,0,0.2,0,0.3,0c1.9,0,4.4-0.5,6.2-1.3c0,0.1,0,0.1,0,0.2c-0.1,0.9-1.2,2.4-2.6,3.7c-1.5,1.3-4.1,1-4.3,1
		c-0.1,0-0.5-0.1-0.8-0.5C67.2,73.6,67.4,73.2,67.6,72.8z M52.3,76.1c0.6,0,3.5,2.5,8.1,1.3c2.5-0.6,4.1-1.4,5.2-2.3
		c0,0.5-0.1,1-0.3,1.4c-0.7,1.5-2.5,2.7-6.6,3.8c-3.7,0.9-6.5-1.1-7.1-1.6C52,76.4,51.7,76.1,52.3,76.1z M59.5,30.1
		c1,1.4-0.3,2.6,1.2,5.9c1.5,3.4,1.4,5.9,0.9,8.8c-0.5,2.8,1.3,2.8,0.5,4.4c-0.5,1-0.1,2.2,0.2,3c-3.2,1.2-5.4,3.7-5.9,8.7
		c0,0,1.9-5.8,6.5-7c4.6-1.3,7.1-0.2,8.5-0.9c1.4-0.7,1.7-1.9,3.7-2.3c1.9-0.4,4.6-2,4.6-2l-0.9-0.9c0,0-3.3,1.2-4.3,1.6
		c-1,0.5-2.5,2.3-3.7,2.3c-1.2,0-4.2-0.6-7.2,0.2c-0.3-0.7-0.3-2.2-0.3-2.7c0.1-0.7,0.5-1,3.2-1.2c2.7-0.2,3.4-1.4,4.8-2.6
		c1.4-1.2,4-0.8,5.3-1.4c1.3-0.5,2.7-0.6,2.7-0.6s0-0.7,0-1.5c0-0.7-0.3-1.7-0.3-1.7s-0.5-1.5-0.5-0.7c0,0.7-1,2.9-1.7,3.3
		c-0.7,0.4-3.2,0.3-5.4,1.3c-2.2,1-4.9,2.9-6,2.9c-1.1,0-2.3,0.2-2.6-1.1c-0.3-1.3,0.7-2.7,0.5-6.1c-0.2-3.4-2.3-5.4-2.3-6.9
		c0-1.5,4-1.9,4-1.9l-0.4-1.2c0,0-2.8,1.5-3.6,0.8c-0.7-0.6-1.1-2.1-1-5.9c0.1-3.7-1-3.5-2.3-5c-1.3-1.6-1.7-4.1-1.7-4.1s0,0-0.3,2
		c-0.3,2,3.1,4.5,3,6.3C58.8,25.8,58.5,28.8,59.5,30.1z M41.9,30.5c-1.6,0.1-2.3-0.9-3.4,0.4c-1,1.2-1.5,1-1.1,1.8
		c0.4,0.7,1.2-1.2,2.4-1.3c1.2-0.1,1.8-0.1,2.4,0.4c0.6,0.4,2.1,2.2,2.8,1.6c0.7-0.5-1.6-1.4-1.5-2.1c0.2-0.7,1.6-1.8,0.6-2.1
		C44,29.1,43.6,30.4,41.9,30.5z M41.4,23.8c-1.7,0.1-3.1,0.1-3.1,0.4c0,0.4-0.3,0.5,0.9,0.5c1.2,0,2.7-0.3,2.5,0.4
		c-0.2,0.7-1.3,2.9,0.2,1.8c0,0,1.3-1.4,1.6-2.9c0.3-1.5,1-4,0.2-4.1c-0.9-0.1-0.7,1-0.8,1.6C42.9,22.3,43.1,23.7,41.4,23.8z
		 M56.9,45.8c-1,0.2-2.3,0.1-2.7,0.5c0,0,0,1.2,0.5,1.2c0.5,0,3.2-1.2,3.8-1.5C59.2,45.8,57.9,45.6,56.9,45.8z M51.6,34.7
		c0,0,0.7-1.3,3-1.6c2.4-0.3,3-0.4,2.6-0.5c-0.4-0.1-2.4,0-2.5-0.3c-0.1-0.3-0.4-1.3-0.1-2.3c0.3-1-0.2-0.9-0.6-0.4
		c-0.3,0.5-0.9,1.6-1.2,2.6C52.5,33.1,51.3,33.5,51.6,34.7z M47.8,16c0.4,0.9-0.9,0.7-1.8,0.7c-0.9-0.1-0.5,0.9,0.4,1.2
		c1,0.3,1.7,0.1,1.7,1.2c0,1-0.3,1.9-0.2,2.2c0.1,0.3,0.6,1-0.3,0.7c-0.9-0.3-1.2-0.5-0.9,0.1c0.3,0.7,1.2,3,1.8,3.4
		c0,0,2-2.6,3.2-3.5c1.2-1,0.5-0.7-0.3-0.5c-0.9,0.2-1.5,1-1.9,0.4c-0.4-0.5-0.7-1-0.1-2.9c0.6-1.8,1.8-2.6,1.3-2.8
		c-0.5-0.2-1.5-0.2-1.7-0.5c-0.2-0.3-0.5-0.5-0.5-0.5s-1.2-0.5-2.3-0.8c-1.1-0.3-1.3-0.3-1.3-0.3S47.5,15.1,47.8,16z M60.8,17.9
		c1.1,0.3,2.7,1.8,2.7,2.9c0,1-2.3,0.3-1.7,1.3c0,0,2.3,1.7,2.3,2.9c0,1.2-0.5,1.7,0.2,1.8c0.7,0.1,2.4,0.7,3.2,1.8
		c0.9,1.1,2,2.9,2,3.6c0,0.7-0.2,0.9-0.9,1c-0.7,0.1-2-0.2-1.3,0.4c0.7,0.6,1.2,1,3,1c1.8,0.1,4.1,0.7,3.3,0.1
		c-0.9-0.6-1.2-0.3-1.9-1.5c-0.7-1.2-0.3-1.6-0.7-2.6c-0.4-1-0.2-2.6,0.6-0.9c0.9,1.6,0.7,1.2,2.1,2.3c1.3,1.2,2.1,1.8,2.6,2.3
		c0.4,0.5,0.6,0.7,0.6,0.7s0.1-1.2-0.2-1.8c-0.2-0.7-1.2-0.4-1.8-1.2c-0.6-0.8-1.9-2.1-2.5-2.9c-0.6-0.8-0.5-1.8-1.5-2.4
		c-1-0.6-0.9,1.6-3.8-0.5c-2.9-2.1-2.6-3-2.7-3.8c-0.1-0.9,0.4-0.9,1.1-1.1c0.7-0.2,1-0.4,0.8-0.4c-0.2,0-0.7-0.2-0.7-0.2
		s-0.9-0.2-1.6-1.1c-0.7-0.9-1-1.5-1.3-1.6c-0.2-0.1-1-1-1.4-1c-0.4,0-3.5,0-3.1,0.4C58.5,17.7,59.7,17.6,60.8,17.9z M75.4,38.2
		c-0.9,0.5-1.2,0.2-2.4,0.1c-1.3-0.2-1.7-0.1-4.1,1c-2.4,1-2.8,3.4-2.8,3.4c0.3,0.9,0.9,0.3,1.3-0.5c0.4-0.9,1.1-1.2,3-2.3
		c1.9-1,3-0.2,4.5,0.4c1.5,0.6,1,0.7,1.2-0.1c0.2-0.7-0.1-0.7,0.4-1.4c0.4-0.7,1-1.8,1-1.8l-0.7-1.3C76.8,35.6,76.3,37.6,75.4,38.2z
		 M25.3,66.5c0.3-0.4-0.7-0.4-2.1-1.1c-1.4-0.7-2.6-0.8-3.8-1.8c-1.2-1-1-1.3-0.4-1.7c0.7-0.4,1.1,0,2.6,0c1.5,0,2.2,0.7,3.4,1.8
		c1.2,1.1,2.5,2.1,2,3.2c-0.5,1,0.2,1.6,0.7,1.5c0.5-0.1,0.8-2.2,2.3-2.2c1.5,0,1.5,0.4,2.1,1.3c0.6,1,2.5,3.2,3.8,3.8
		c1.3,0.6,2.1,0.5,3.4,0.6c1.2,0.1,2.9,1,3.4,1.1c0.5,0.1,0.1-0.4-1-0.8c-1.2-0.4-1.2-1.1-1.2-1.1s0.5-0.6,1.2-1.2
		c0.7-0.5-1.3,0.2-2.4,0.2c-1.1,0-2.1,0-3.2-0.3c-1.2-0.3-2.8-3-3.2-4.2c-0.4-1.2,0.1-2.1,0.2-2.9c0.1-0.8-0.4-1.3-0.9-0.6
		c-0.5,0.7-0.3,2.4-0.8,2.6c-0.5,0.2-1.9,0.1-3.4-0.3c-1.5-0.4-2.7-2.9-3.2-3.8c-0.5-1-0.4-2.4-0.9-2.4c-0.5,0-0.5,0.2-0.5,1
		c0,0.8,0.2,2-0.2,2c-0.4-0.1-2.4-0.4-3.7-0.5c-1.3-0.1-1.7-1.8-1.7-1.8c-0.4,1.7,0.1,4.3,0.1,4.3s0.5,0.5,0.9,0.9
		c0.3,0.4,0.9,0.7,2.3,1.5c1.3,0.8,1.6,0.6,2.9,0.7C24.7,66.6,25,66.9,25.3,66.5z M19.8,42.3c-0.3,1.6,0.1,2.5,0.5,2.2
		c0.4-0.2,0.5-1.7,1-2.4c0.5-0.7,1.5,0.1,2.5,0.1c1,0,2.2,0,2.4,0c0.2,0,0-0.5-2.5-1.1c-2.4-0.5-3.2-1.6-3.4-3.1
		c-0.2-1.5,0.1-2.2,0.1-2.2c-0.5,0.7-1.3,2.1-1.3,2.1s0.2,1.6,0.6,2.1C20.1,40.6,20.1,40.7,19.8,42.3z M24,34.3
		c1.4,0.2,1.9,2,2.7,2.7c0.9,0.7,1.1,0.5,1.1,0.2c0-0.3-1.8-1.4-2.2-3.8c-0.3-2.4,0.9-3.4,1.4-4c0.5-0.6,1.6-0.5,3.4-0.9
		c1.8-0.4,1.5-1.5,1.5-1.6c0-0.1-1.2,0.7-2.6,0.7c-1.4,0-1-1.5-0.8-2.2c0.2-0.7,1.2-1.1,1.7-1.5c0.5-0.4-0.5-0.3-1.6,0.2
		c-1,0.5-2.1,1.5-2.1,1.5c0.9,0,0.5,1.4,0.7,2.2c0.1,0.8-1,0.9-1.8,2c-0.8,1.1-0.7,2.5-0.7,3.1s-0.5,0.6-1.5,0.3
		c-1-0.3-1.3-0.5-1.5,0c-0.2,0.5-0.5,1.9-0.8,2.3c-0.2,0.4,0.1,0,0.7-0.5C22.5,34.2,22.7,34.1,24,34.3z"/>
</g>
<path fill="#FFFFFF" d="M81.7,51.7c-0.1-2.2-1.1-3.5-1.7-4.2c0.3-0.8,0.6-2.1,0.5-4.5c-0.2-3.4-1.4-5.3-2.1-6.6
	c-0.3-0.4-0.5-0.8-0.5-1c-0.2-6.8-4.6-9.7-6.4-10.7c-1.5-3.4-4.2-4.6-5.2-4.9C65.5,18.9,63.1,16,59,14c-4.2-2.2-9-0.6-10.4,0
	c-1.4-0.6-6.3-2.2-10.4,0c-4,2.1-6.4,5-7.1,5.9c-1,0.3-3.7,1.5-5.2,4.9c-1.8,0.9-6.2,3.9-6.4,10.7c-0.1,0.2-0.3,0.6-0.5,1
	c-0.8,1.3-2,3.3-2.1,6.6c-0.1,2.3,0.2,3.7,0.5,4.5c-0.7,0.7-1.6,2-1.7,4.2c-0.2,2.4,0.7,3.9,1.3,4.6c-0.4,1.6-1.3,6.6,1.1,10.5
	c1,1.6,1.6,2.4,1.9,2.8c0,0.9,0.3,2.7,2,4.7c1.3,1.4,2.1,2.2,2.7,2.6c0.1,1.7,1.2,4.5,5.1,5.8c3.3,1.1,4.6,1.4,5.1,1.5
	c0.9,0.6,5.7,3.7,10.7,2.5c0,0,2.5-0.6,2.5-0.6l0.6-0.1l1.3,0.3l1.9,0.4c5,1.2,9.8-1.9,10.7-2.5c0.5-0.1,1.8-0.5,5.1-1.5
	c3.9-1.3,5-4,5.1-5.8c0.5-0.4,1.4-1.1,2.7-2.6c1.7-2,2-3.8,2-4.7c0.4-0.4,0.9-1.2,1.9-2.8c2.5-3.9,1.5-8.9,1.1-10.5
	C80.9,55.6,81.8,54.1,81.7,51.7z M78.7,55.3L78.7,55.3C78.7,55.3,78.7,55.4,78.7,55.3l-0.4,0.5l0.2,0.5v0c0,0.1,1.7,5.6-0.8,9.5
	c-0.7,1.1-1.2,1.8-1.5,2.2l-0.9,1.4l0.2,0.1c0,0.1,0.2,1.7-1.5,3.7c-1.8,2-2.6,2.4-2.6,2.4l-0.7,0.2c0.1,0,0.1,0.7,0.1,0.7
	c0,0.1,0.3,3.1-3.7,4.4c-3.9,1.2-4.8,1.5-5,1.5h-0.2l-0.2,0.2c0,0-4.8,3.4-9.4,2.3c0,0-1.9-0.4-1.9-0.4l-1.5-0.3l-0.2,0
	c0,0-0.2,0-0.2,0l-0.9,0.2l-2.5,0.6c-4.6,1.1-9.3-2.3-9.4-2.3l-0.2-0.2h-0.2c-0.2,0-1.2-0.3-5-1.5c-4-1.3-3.8-4.3-3.7-4.4l0.1-0.8
	c0,0-0.7-0.2-0.7-0.2c0,0-0.7-0.4-2.5-2.4c-1.7-2-1.5-3.6-1.5-3.7l0.7-1.3c0,0-1-0.4-1.5-0.1c-0.3-0.4-0.7-1-1.5-2.2
	c-2.4-3.9-0.8-9.4-0.8-9.5l0.2-0.4l-0.5-0.6c0,0-1.2-1.1-1.1-3.5c0.1-2.4,1.5-3.2,1.6-3.3l0.8-0.4c0,0-0.7-1.1-0.7-1.1
	c0.1,0.1-0.6-0.8-0.4-3.9c0.2-2.9,1.2-4.5,1.9-5.8c0.4-0.6,0.7-1.1,0.8-1.7l0-0.1l0-0.1c0.1-6,4-8.5,5.7-9.3l0.3-0.2l0.1-0.3
	c1.4-3.5,4.3-4.2,4.3-4.2l0.4-0.1l0.2-0.3c0,0,2.3-3.3,6.6-5.5c3.9-2,8.7-0.1,9.2,0.2l0.4,0.2l0.4-0.2c0.2-0.1,5.2-2.3,9.2-0.2
	c4.3,2.3,6.6,5.5,6.6,5.5l0.2,0.3l0.4,0.1c0.1,0,3,0.7,4.3,4.2l0.1,0.3l0.3,0.2c1.7,0.8,5.5,3.2,5.7,9.3l0,0.1l0,0.1
	c0.1,0.5,0.4,1,0.8,1.7c0.7,1.2,1.7,2.9,1.9,5.8c0.2,3.1-0.5,3.9-0.5,3.9l-0.7,1.2c0.1-0.1,0.9,0.3,0.9,0.3c0,0,1.4,0.9,1.6,3.3
	C80,54.2,78.8,55.2,78.7,55.3z"/>
<linearGradient id="SVGID_3_" gradientUnits="userSpaceOnUse" x1="40.6575" y1="35.1292" x2="38.6574" y2="-9.3717">
	<stop  offset="5.617980e-003" style="stop-color:#004794"/>
	<stop  offset="1" style="stop-color:#00A0EE"/>
</linearGradient>
<path opacity="0.93" fill="url(#SVGID_3_)" d="M1.4,54.3c0-4.4,0.8-8.8,2.6-13c11.8-26.4,41.7-11.4,53-13.1
	c10.5-1.5,20.8-13.1,22.8-15.5C71.5,5.4,60.6,0.9,48.5,0.9C22.3,0.9,1,22.2,1,48.4C1,50.4,1.2,52.4,1.4,54.3z"/>
<linearGradient id="SVGID_4_" gradientUnits="userSpaceOnUse" x1="41.0099" y1="34.0063" x2="88.3432" y2="118.6741">
	<stop  offset="5.617980e-003" style="stop-color:#C7CF00"/>
	<stop  offset="1" style="stop-color:#30941B"/>
</linearGradient>
<path opacity="0.92" fill="url(#SVGID_4_)" d="M96.7,42.6c0,4.4-0.8,8.8-2.6,13C82.2,82,52.3,67,41,68.6
	c-10.5,1.5-20.8,13.1-22.8,15.5C26.5,91.5,37.5,96,49.5,96C75.8,96,97,74.7,97,48.5C97,46.5,96.9,44.5,96.7,42.6z"/>
<path fill="#FFFFFF" d="M80.5,12.1C71.7,4.3,60.3,0,48.5,0C21.8,0,0,21.8,0,48.5c0,1.2,0.4,4.6,1.8,8.6l0,0
	C3.4,61.7,8.1,70.3,20.1,71l0.1-2C6.8,68.3,3.5,56.5,3,54.2c-0.9-4.8,0.2-8.7,1.9-12.4C13.4,23,31.6,26,44.9,28.2
	c4.9,0.8,9.2,1.5,12.3,1.1C68,27.8,78.6,15.9,80.6,13.5l0.6-0.7L80.5,12.1z M56.9,27.3c-2.8,0.4-6.9-0.3-11.6-1.1
	c-14-2.3-33.1-5.5-42.2,14.7c-0.3,0.6-0.5,1.2-0.7,1.8C5.2,19.8,24.8,2,48.5,2c11,0,21.6,3.9,30,11C75.5,16.3,66.2,26,56.9,27.3z"/>
<path fill="#FFFFFF" d="M96.3,40l0-0.1c-1.6-4.5-6.1-12.8-17.5-13.9l0,0c0,0-0.3,0-0.8-0.1c0,0,0,0,0,0v0c-1.1-0.1-3.1-0.1-5.4,0.3
	l0.3,2c2.3-0.4,4.2-0.3,5.1-0.3c13.4,0.9,16.6,12.6,17.1,14.8c0.9,5.7-0.2,8.7-1.9,12.4C84.7,74,66.5,71,53.1,68.8
	c-4.9-0.8-9.2-1.5-12.3-1.1c-10.8,1.5-21.4,13.4-23.5,15.8l-0.6,0.7l0.7,0.6c8.9,7.8,20.2,12.1,32,12.1c26.7,0,48.5-21.8,48.5-48.5
	C98.1,47.3,97.7,44.1,96.3,40z M49.6,95c-11,0-21.6-3.9-30-11c3-3.4,12.3-13.1,21.6-14.4c2.8-0.4,6.9,0.3,11.6,1.1
	c14,2.3,33.1,5.5,42.2-14.7c0.3-0.6,0.5-1.2,0.7-1.8C92.9,77.2,73.3,95,49.6,95z"/>
</svg>
